<svg width="401" height="401" viewBox="0 0 401 401" fill="none" xmlns="http://www.w3.org/2000/svg">
<circle cx="200.037" cy="200.927" r="200" fill="url(#paint0_linear_34_2)"/>
<g filter="url(#filter0_d_34_2)">
<path d="M140.783 175.269L178.027 203.284H103.54L140.783 175.269Z" fill="#FF3358"/>
<path d="M140.783 175.269L178.027 203.284H103.54L140.783 175.269Z" fill="url(#paint1_linear_34_2)"/>
<path d="M214.758 131.53V79.4816H120.031V322.373H214.758C267.848 322.373 310.18 280.041 310.18 226.605C310.18 174.903 267.848 131.53 214.758 131.53Z" fill="#FEFEFE"/>
<path d="M214.758 131.53V79.4816H120.031V322.373H214.758C267.848 322.373 310.18 280.041 310.18 226.605C310.18 174.903 267.848 131.53 214.758 131.53Z" fill="url(#paint2_linear_34_2)"/>
<path d="M158.023 203.286L158.023 270.186L238.281 270.186L215.465 236.82L238.281 203.286L158.023 203.286Z" fill="#FF3358"/>
<path d="M158.023 203.286L158.023 270.186L238.281 270.186L215.465 236.82L238.281 203.286L158.023 203.286Z" fill="url(#paint3_linear_34_2)" fill-opacity="0.08"/>
<rect x="103.536" y="203.286" width="72.4073" height="66.9005" fill="#FF3358"/>
<rect x="103.536" y="203.286" width="72.4073" height="66.9005" fill="url(#paint4_linear_34_2)" fill-opacity="0.08"/>
</g>
<defs>
<filter id="filter0_d_34_2" x="99.5361" y="79.4816" width="214.644" height="250.892" filterUnits="userSpaceOnUse" color-interpolation-filters="sRGB">
<feFlood flood-opacity="0" result="BackgroundImageFix"/>
<feColorMatrix in="SourceAlpha" type="matrix" values="0 0 0 0 0 0 0 0 0 0 0 0 0 0 0 0 0 0 127 0" result="hardAlpha"/>
<feOffset dy="4"/>
<feGaussianBlur stdDeviation="2"/>
<feComposite in2="hardAlpha" operator="out"/>
<feColorMatrix type="matrix" values="0 0 0 0 0 0 0 0 0 0 0 0 0 0 0 0 0 0 0.25 0"/>
<feBlend mode="normal" in2="BackgroundImageFix" result="effect1_dropShadow_34_2"/>
<feBlend mode="normal" in="SourceGraphic" in2="effect1_dropShadow_34_2" result="shape"/>
</filter>
<linearGradient id="paint0_linear_34_2" x1="200.037" y1="0.927368" x2="343.678" y2="473.247" gradientUnits="userSpaceOnUse">
<stop stop-color="#2A323F"/>
<stop offset="1" stop-color="#1C2431"/>
</linearGradient>
<linearGradient id="paint1_linear_34_2" x1="71.96" y1="226.371" x2="155.871" y2="199.121" gradientUnits="userSpaceOnUse">
<stop stop-color="#33061B" stop-opacity="0"/>
<stop offset="1" stop-color="#F72586"/>
</linearGradient>
<linearGradient id="paint2_linear_34_2" x1="120.031" y1="325.031" x2="215.105" y2="77.8718" gradientUnits="userSpaceOnUse">
<stop stop-color="#DBDAD8"/>
<stop offset="1" stop-color="#DBDAD8" stop-opacity="0"/>
</linearGradient>
<linearGradient id="paint3_linear_34_2" x1="153.951" y1="193.543" x2="261.746" y2="240.207" gradientUnits="userSpaceOnUse">
<stop stop-color="#F72586" stop-opacity="0"/>
<stop offset="1" stop-color="#F72586"/>
</linearGradient>
<linearGradient id="paint4_linear_34_2" x1="99.8629" y1="193.543" x2="200.055" y2="232.673" gradientUnits="userSpaceOnUse">
<stop stop-color="#F72586" stop-opacity="0"/>
<stop offset="1" stop-color="#F72586"/>
</linearGradient>
</defs>
</svg>
